<svg width="180" height="46" xmlns="http://www.w3.org/2000/svg" version="1.1" style="enable-background:new 0 0 180 46;" xml:space="preserve">
 <style type="text/css">.st0{fill:#85CDF0;}
	.st1{fill:#0097E0;}
	.st2{fill:#282828;}</style>
 <g>
  <title>background</title>
  <rect x="-1" y="-1" width="182" height="48" id="canvas_background" fill="none"/>
 </g>
 <g>
  <title>Layer 1</title>
  <defs>
   <style type="text/css">@font-face { font-family: feedback-iconfont; src: url("//at.alicdn.com/t/font_1031158_u69w8yhxdu.woff2?t=1630033759944") format("woff2"), url("//at.alicdn.com/t/font_1031158_u69w8yhxdu.woff?t=1630033759944") format("woff"), url("//at.alicdn.com/t/font_1031158_u69w8yhxdu.ttf?t=1630033759944") format("truetype"); }</style>
  </defs>
  <rect stroke="null" fill="#1296db" stroke-width="0" stroke-opacity="null" fill-opacity="null" x="0.999993" y="2.5" width="89.999978" height="41" id="svg_87" opacity="0.1"/>
  <g id="svg_35" stroke="null">
   <path d="m56.583274,19.90881l-2.421634,0c-0.832241,-1.347106 -1.975269,-2.783849 -3.022349,-3.990099l-0.087604,-0.097319c-0.060489,-0.07427 -0.31913,-0.391839 -0.707092,-0.83746c-1.22646,-1.411132 -2.863827,-3.10654 -4.234209,-3.903023l1.708284,0c1.39124,0 2.517581,-1.382961 2.517581,-3.091174c0,-1.705652 -1.126341,-3.091174 -2.517581,-3.091174l-6.545294,0c-1.389154,0 -2.517581,1.385522 -2.517581,3.091174c0,1.708213 1.128427,3.091174 2.517581,3.091174l2.0295,0c-1.902265,0.965512 -3.996426,3.32679 -5.018476,4.58426c-0.844756,0.909169 -2.244339,2.543112 -3.249703,4.243642l-2.617701,0c-1.39124,0 -2.517581,1.385522 -2.517581,3.091174s1.126341,3.091174 2.517581,3.091174l2.534268,0c0.761323,1.226738 1.781288,2.502135 2.671932,3.521429c0.387962,0.450743 0.665376,0.750384 0.732122,0.819532l0.085519,0.099881c1.4413,1.654431 3.268476,3.547039 4.741062,4.38706l-2.160907,0c-1.389154,0 -2.515496,1.385522 -2.515496,3.091174s1.126341,3.091174 2.515496,3.091174l7.050062,0c1.389154,0 2.517581,-1.385522 2.517581,-3.091174s-1.128427,-3.091174 -2.517581,-3.091174l-2.306914,0c1.758344,-0.998805 4.021456,-3.495818 5.074793,-4.7328c0.77801,-0.880997 2.137963,-2.502135 3.164185,-4.097662l2.580156,0c1.39124,0.002561 2.517581,-1.3804 2.517581,-3.088613s-1.126341,-3.091174 -2.517581,-3.091174l0,-0.000002zm-15.309898,-10.108421c-0.813469,0 -1.474673,-0.811849 -1.474673,-1.810655s0.661204,-1.810655 1.474673,-1.810655l6.545294,0c0.813469,0 1.474673,0.811849 1.474673,1.810655s-0.66329,1.810655 -1.474673,1.810655l-6.545294,0zm6.797678,26.399189c0.813469,0 1.474673,0.811849 1.474673,1.810655s-0.661204,1.810655 -1.474673,1.810655l-7.050062,0c-0.811383,0 -1.472587,-0.811849 -1.472587,-1.810655s0.661204,-1.810655 1.472587,-1.810655l7.050062,0zm-15.654058,-11.38894c-0.813469,0 -1.474673,-0.811849 -1.474673,-1.810655s0.661204,-1.810655 1.474673,-1.810655l6.545294,0c0.813469,0 1.474673,0.811849 1.474673,1.810655s-0.66329,1.810655 -1.474673,1.810655l-6.545294,0zm17.771162,4.627797c0,0 -4.121575,4.83268 -5.667165,4.865974c-1.403755,0.030732 -4.81198,-3.810826 -5.429382,-4.522795c-0.062575,-0.07427 -0.098033,-0.115247 -0.098033,-0.115247s-0.289929,-0.309886 -0.719607,-0.799044c-0.594458,-0.686358 -1.447557,-1.721018 -2.16925,-2.776166l2.85757,0c1.389154,0 2.517581,-1.385522 2.517581,-3.091174s-1.128427,-3.091174 -2.517581,-3.091174l-2.78248,0c1.178487,-1.7748 2.671932,-3.403621 2.755364,-3.493257c0.133492,-0.163906 4.298869,-5.283423 6.167761,-4.673896c1.36621,0.44306 3.497915,2.73519 4.588798,3.99266c0.427593,0.494281 0.696663,0.827216 0.696663,0.827216s0.035459,0.035855 0.098033,0.110125c0.34416,0.396961 1.533076,1.80041 2.515496,3.239714l-2.963946,0c-1.389154,-0.002561 -2.517581,1.382961 -2.517581,3.088613s1.128427,3.091174 2.517581,3.091174l2.790823,0c-1.201431,1.710774 -2.640645,3.347278 -2.640645,3.347278l0,-0.000001zm6.395115,-4.627797l-6.545294,0c-0.813469,0 -1.474673,-0.811849 -1.474673,-1.810655s0.661204,-1.810655 1.474673,-1.810655l6.545294,0c0.813469,0 1.474673,0.811849 1.474673,1.810655s-0.661204,1.810655 -1.474673,1.810655z" p-id="4226" fill="#1296db" id="svg_34" stroke="null"/>
  </g>
  <defs>
   <style type="text/css">@font-face { font-family: feedback-iconfont; src: url("//at.alicdn.com/t/font_1031158_u69w8yhxdu.woff2?t=1630033759944") format("woff2"), url("//at.alicdn.com/t/font_1031158_u69w8yhxdu.woff?t=1630033759944") format("woff"), url("//at.alicdn.com/t/font_1031158_u69w8yhxdu.ttf?t=1630033759944") format("truetype"); }</style>
  </defs>
  <defs>
   <style type="text/css">@font-face { font-family: feedback-iconfont; src: url("//at.alicdn.com/t/font_1031158_u69w8yhxdu.woff2?t=1630033759944") format("woff2"), url("//at.alicdn.com/t/font_1031158_u69w8yhxdu.woff?t=1630033759944") format("woff"), url("//at.alicdn.com/t/font_1031158_u69w8yhxdu.ttf?t=1630033759944") format("truetype"); }</style>
  </defs>
  <defs>
   <style type="text/css">@font-face { font-family: feedback-iconfont; src: url("//at.alicdn.com/t/font_1031158_u69w8yhxdu.woff2?t=1630033759944") format("woff2"), url("//at.alicdn.com/t/font_1031158_u69w8yhxdu.woff?t=1630033759944") format("woff"), url("//at.alicdn.com/t/font_1031158_u69w8yhxdu.ttf?t=1630033759944") format("truetype"); }</style>
  </defs>
  <g id="svg_73" stroke="null">
   <path d="m20.384339,15.992483l1.199271,0l0,-3.270399l-2.997159,0a2.997159,2.335773 0 0 0 -5.995336,0l-2.997159,0l0,3.270399l10.790382,0l0.000001,0zm-9.591112,-2.335773l2.997159,0l0,-0.934626a1.798906,1.40194 0 0 1 3.597812,0l0,0.934626l2.996141,0l0,1.401146l-9.591112,0l0,-1.401146zm-5.994318,20.088915l21.578729,0l0,0.46652l-21.578729,0l0,-0.46652z" p-id="4878" fill="#1296db" id="svg_69" stroke="null"/>
   <path d="m22.781862,13.656711l0,0.934626l4.19643,0l0,20.088915l-22.779018,0l0,-20.088915l4.19643,0l0,-0.934626l-5.3957,0l0,21.957374l25.177559,0l0,-21.957374l-5.3957,0l-0.000001,0z" p-id="4879" fill="#1296db" id="svg_70" stroke="null"/>
   <path d="m15.589292,20.197509a5.3957,4.205026 0 0 1 5.260299,3.269606l-1.665541,0l0,0.934626l2.998177,0l1.637035,-2.334979l-1.038418,-0.467313l-0.913197,1.232152a6.594971,5.139652 0 0 0 -12.873326,1.570141l1.198253,0a5.3957,4.205026 0 0 1 5.396718,-4.204232l0,-0.000001zm-7.354441,8.033186l1.040454,-1.405113a6.597007,5.141239 0 0 0 6.312969,3.649645a6.593953,5.138859 0 0 0 6.593953,-5.138859l-1.199271,0a5.3957,4.205026 0 0 1 -10.655999,0.934626l1.663505,0l0,-0.934626l-2.995123,0l-1.798906,2.428601l1.038418,0.465726z" p-id="4880" fill="#1296db" id="svg_71" stroke="null"/>
   <path d="m15.715531,25.161026l0,2.059669l-0.53957,0l0,-2.059669l-2.640839,0l0,-0.419709l2.640839,0l0,-2.058082l0.53957,0l0,2.057289l2.635749,0l0,0.419709l-2.635749,0l0,0.000793z" p-id="4881" fill="#1296db" id="svg_72" stroke="null"/>
  </g>
  <text fill="#1296db" stroke="null" stroke-width="0" x="95.499974" y="30.5" id="svg_74" font-size="24" font-family="Helvetica, Arial, sans-serif" text-anchor="start" xml:space="preserve">TongCS</text>
  <defs>
   <style type="text/css">@font-face { font-family: feedback-iconfont; src: url("//at.alicdn.com/t/font_1031158_u69w8yhxdu.woff2?t=1630033759944") format("woff2"), url("//at.alicdn.com/t/font_1031158_u69w8yhxdu.woff?t=1630033759944") format("woff"), url("//at.alicdn.com/t/font_1031158_u69w8yhxdu.ttf?t=1630033759944") format("truetype"); }</style>
  </defs>
  <defs>
   <style type="text/css">@font-face { font-family: feedback-iconfont; src: url("//at.alicdn.com/t/font_1031158_u69w8yhxdu.woff2?t=1630033759944") format("woff2"), url("//at.alicdn.com/t/font_1031158_u69w8yhxdu.woff?t=1630033759944") format("woff"), url("//at.alicdn.com/t/font_1031158_u69w8yhxdu.ttf?t=1630033759944") format("truetype"); }</style>
  </defs>
  <g id="svg_86" stroke="null">
   <path d="m62.609742,13.792747c0.548869,-0.249151 1.19183,-0.383552 1.83725,-0.38694c6.456359,0.000226 12.913026,0 19.369693,0c0.502746,0.004292 1.013486,-0.02417 1.506392,0.06641c0.987042,0.162411 1.859082,0.651903 2.339073,1.305161c0.28904,0.385811 0.432945,0.82606 0.43602,1.265857c0.000922,3.350321 0,6.700641 0.000307,10.051187c-0.002152,0.332954 0.019679,0.670426 -0.079025,0.998184c-0.209708,0.756036 -0.904634,1.426461 -1.834483,1.783133c-0.536569,0.209395 -1.146936,0.309462 -1.753306,0.302685c-3.072129,-0.000678 -6.144257,0.000226 -9.216386,-0.000452c-0.002767,0.788111 0.002767,1.576223 -0.002767,2.364334c2.776016,0.004969 5.55234,0.000452 8.328663,0.002259c0.205711,-0.000226 0.408039,0.069798 0.539952,0.185677c0.162662,0.135757 0.20817,0.336342 0.131606,0.506659c-0.07472,0.171446 -0.281353,0.307429 -0.52058,0.344926c-0.110696,0.0192 -0.225082,0.011746 -0.337316,0.012875c-5.965298,-0.000226 -11.930597,0.000226 -17.896203,-0.000226c-0.205096,0.000226 -0.407116,-0.069347 -0.539337,-0.184548c-0.157127,-0.130787 -0.205096,-0.32166 -0.141445,-0.487685c0.06488,-0.173028 0.262904,-0.314205 0.498441,-0.359608c0.119306,-0.025299 0.244762,-0.017619 0.36745,-0.018297l8.140787,0c0.000307,-0.788789 0.000307,-1.577352 0.000307,-2.366141c-3.072436,0.000226 -6.14518,-0.000226 -9.217616,0.000226c-0.560554,0.005873 -1.124489,-0.078156 -1.63031,-0.257508c-0.876038,-0.305848 -1.567582,-0.884564 -1.861542,-1.564025c-0.120228,-0.268351 -0.170964,-0.551158 -0.174347,-0.832837c-0.000307,-3.342866 0,-6.685733 0,-10.028825c0.002767,-0.324822 -0.019987,-0.653258 0.070415,-0.973563c0.186031,-0.710633 0.797013,-1.352823 1.638305,-1.728921m1.512541,0.686237c-0.739513,0.08945 -1.39139,0.484522 -1.649989,1.001572c-0.131913,0.242826 -0.149132,0.507563 -0.141445,0.765975l0,9.961737c0.000615,0.256831 -0.017219,0.519535 0.084867,0.768685c0.197101,0.523601 0.787481,0.953685 1.501779,1.093507c0.37114,0.07906 0.760729,0.053083 1.141709,0.057375c6.43668,0 12.873667,-0.000226 19.310347,0.000226c0.267208,0.004066 0.537184,-0.014457 0.792401,-0.074994c0.65526,-0.149536 1.19429,-0.543478 1.4,-1.024387c0.124226,-0.264059 0.107006,-0.546867 0.106699,-0.821768l0,-9.848117c-0.001845,-0.173028 0.00861,-0.346733 -0.020294,-0.519083c-0.066418,-0.400719 -0.353921,-0.77885 -0.782869,-1.031163c-0.375137,-0.224303 -0.855744,-0.351025 -1.339425,-0.352606c-6.694049,0.000452 -13.388097,-0.000226 -20.082146,0.000452c-0.107929,0.001581 -0.21555,0.009487 -0.321634,0.022588l0,0.000001z" p-id="30131" fill="#1296db" id="svg_84" stroke="null"/>
   <path d="m69.778247,16.643411c0.435713,-0.004518 0.871733,-0.000452 1.307753,-0.001807c0.174039,0.001807 0.349308,-0.006551 0.52304,0.009487c0.481221,0.040207 0.941226,0.206007 1.277619,0.46216c0.384977,0.281904 0.604217,0.677654 0.613134,1.075888c0.001845,0.346055 -0.000307,0.69211 0.000922,1.038392c0.002767,0.196294 -0.036591,0.393943 -0.128531,0.578942c-0.210938,0.432117 -0.694004,0.787434 -1.283154,0.941261c-0.260751,0.070928 -0.540567,0.09826 -0.817615,0.095549c-0.440633,-0.000452 -0.881265,-0.000226 -1.32159,0c-0.642653,0.007002 -1.280387,-0.209621 -1.685043,-0.576683c-0.304107,-0.271062 -0.480299,-0.618924 -0.483989,-0.970626c0.000307,-0.354187 0.000615,-0.708148 -0.000307,-1.062109c-0.010455,-0.366159 0.164814,-0.732996 0.481529,-1.015351c0.36745,-0.335439 0.931694,-0.547996 1.516231,-0.575102m0.025522,1.055333c-0.330244,0.0384 -0.598067,0.265414 -0.59284,0.512306c0,0.353735 0,0.707696 -0.000307,1.061432c-0.000615,0.191098 0.15682,0.37655 0.390204,0.460805c0.143598,0.057826 0.311179,0.06257 0.471074,0.059634c0.441248,-0.002259 0.882803,0.002936 1.32405,-0.002259c0.350846,-0.011068 0.65895,-0.235824 0.671557,-0.494236c0.007687,-0.339279 0,-0.679009 0.00369,-1.018514c0.002767,-0.102777 -0.014452,-0.208717 -0.0821,-0.300201c-0.118998,-0.178449 -0.387437,-0.294328 -0.657105,-0.286196c-0.509203,0.005421 -1.019943,-0.008809 -1.528223,0.007228l0,0.000001zm7.415112,-1.055785c0.517812,-0.003388 1.035318,0 1.55313,-0.001807c0.408346,-0.004292 0.816385,0.083351 1.160466,0.244407c0.581463,0.268803 0.965517,0.752196 0.990732,1.257274c0.007687,0.354187 0.000307,0.708374 0.003382,1.062561c0.004612,0.226336 -0.043049,0.455157 -0.163584,0.664327c-0.246914,0.447929 -0.792401,0.798728 -1.429519,0.920028c-0.412651,0.082448 -0.843444,0.044951 -1.26532,0.053309c-0.463079,-0.008358 -0.940611,0.035238 -1.387086,-0.078382c-0.81823,-0.189065 -1.433209,-0.770041 -1.471645,-1.40071c-0.00615,-0.37655 0,-0.753325 -0.003075,-1.129875c-0.010455,-0.374065 0.171887,-0.748807 0.501823,-1.033648c0.370832,-0.327759 0.931386,-0.534217 1.510696,-0.557483m-0.031671,1.062109c-0.322557,0.053083 -0.569163,0.285292 -0.551021,0.529022c0.002152,0.353961 -0.000922,0.708148 0.001537,1.062109c0.010762,0.263381 0.330244,0.488814 0.686624,0.494913c0.411421,0.00384 0.822842,0.000452 1.234263,0.001581c0.173117,0.001355 0.354536,0.008132 0.515353,-0.048339c0.247222,-0.08177 0.418801,-0.271513 0.421568,-0.471195c0.00123,-0.354187 0.001537,-0.708374 0,-1.062561c0,-0.2618 -0.298265,-0.50169 -0.655875,-0.51705c-0.462772,-0.004066 -0.925544,0.000226 -1.388316,-0.002033c-0.088557,-0.000226 -0.177729,-0.001581 -0.264134,0.013553l0.000001,0zm0.733363,3.676272c0.573776,-0.028913 1.160158,0.118815 1.584494,0.404785c0.361915,0.260671 0.717066,0.526763 1.077444,0.788789c0.340391,0.244181 0.562398,0.575102 0.622051,0.921609c0.089172,0.49288 -0.158357,1.011285 -0.656798,1.349209c-0.313332,0.229725 -0.626664,0.459675 -0.939381,0.690077c-0.458774,0.358253 -1.156161,0.533991 -1.818801,0.470066c-0.471689,-0.043822 -0.921854,-0.206684 -1.25425,-0.456739c-0.347463,-0.256831 -0.697694,-0.511855 -1.045157,-0.768685c-0.380365,-0.292746 -0.594685,-0.697983 -0.583923,-1.102543c0.002152,-0.400719 0.227542,-0.796469 0.609137,-1.082213c0.349001,-0.256153 0.697694,-0.512306 1.046387,-0.768685c0.361608,-0.261123 0.852669,-0.422404 1.358797,-0.44567m-0.001845,1.058495c-0.134373,0.021911 -0.261981,0.070476 -0.357918,0.143888c-0.347156,0.256605 -0.697386,0.511177 -1.044235,0.768234c-0.250912,0.195164 -0.237074,0.534217 0.032286,0.716506c0.350231,0.25525 0.697079,0.51321 1.047617,0.768234c0.213705,0.147277 0.558094,0.170317 0.81085,0.065281c0.117154,-0.047436 0.206633,-0.121752 0.300417,-0.190195c0.245377,-0.180256 0.490753,-0.360512 0.73613,-0.540542c0.092554,-0.068669 0.193411,-0.134401 0.257676,-0.220237c0.129146,-0.166703 0.117154,-0.387166 -0.031979,-0.544834c-0.051351,-0.053309 -0.117769,-0.096904 -0.179881,-0.142533c-0.313024,-0.229725 -0.625741,-0.459675 -0.938458,-0.689626c-0.162355,-0.119267 -0.408961,-0.168736 -0.632506,-0.134175l0.000001,-0.000001zm-8.324051,-0.823349c0.097167,-0.011294 0.195871,-0.017167 0.294575,-0.016941c0.500901,0.000452 1.001801,0.000226 1.502702,0c0.44586,0.002485 0.888645,0.113846 1.245333,0.310591c0.386822,0.21188 0.674017,0.521116 0.792708,0.865138c0.109159,0.294102 0.059038,0.601531 0.070415,0.902183c-0.013222,0.336342 0.047661,0.682397 -0.092862,1.008801c-0.212168,0.525633 -0.825917,0.949845 -1.554052,1.071371c-0.310257,0.057375 -0.632506,0.041563 -0.949528,0.043596c-0.328706,-0.000226 -0.65772,0.000226 -0.986427,0c-0.416956,-0.001807 -0.833297,-0.092161 -1.180145,-0.26293c-0.503975,-0.244181 -0.857589,-0.650548 -0.936921,-1.091023c-0.027982,-0.127399 -0.018142,-0.256605 -0.019372,-0.385133c-0.000307,-0.30901 0.000307,-0.617794 -0.000307,-0.926805c0.00738,-0.354413 0.188184,-0.705212 0.500286,-0.975596c0.328091,-0.290488 0.805315,-0.486781 1.313596,-0.543252m0.120228,1.056011c-0.284428,0.06257 -0.501208,0.266544 -0.503668,0.486104c-0.000615,0.361641 -0.000615,0.723283 0,1.084924c0.003075,0.264285 0.319174,0.495817 0.676785,0.505304c0.481221,0.004518 0.963057,0.000678 1.444586,0.002033c0.197716,0.001129 0.397584,-0.055342 0.533802,-0.161959c0.141138,-0.101648 0.208785,-0.248925 0.204481,-0.392587c-0.002152,-0.346733 0.002767,-0.693466 -0.002152,-1.040199c-0.007995,-0.262252 -0.315177,-0.497398 -0.674325,-0.505304c-0.461542,-0.001807 -0.922776,0.000452 -1.384318,-0.001129c-0.099012,-0.000904 -0.200176,-0.000226 -0.29519,0.022814l-0.000001,-0.000001z" p-id="30132" fill="#1296db" id="svg_85" stroke="null"/>
  </g>
 </g>
</svg>